<svg xmlns="http://www.w3.org/2000/svg" viewBox="0 0 512 512"><g fill="#142c47"><path d="M112.28 26.37c4.36-6.41 11.96-10.43 19.73-10.35 31.65-.09 63.3.02 94.94-.05 7.58-.2 15.21 3.17 19.83 9.24 2.82 3.38 4.11 7.66 5.23 11.83 3.32 11.66 6.7 23.31 10.02 34.97 14.31-.02 28.63-.05 42.94.02 15.27.14 29.77 10.03 35.72 24.05 3.46 7.45 3.52 15.83 3.32 23.88-.01 10.68.01 21.36-.01 32.04 8-.07 16.01.08 24.02-.05 4.5 0 9.17-.16 13.42 1.56 9.51 3.68 16.65 13.21 16.94 23.49.16 5.68-.9 11.57-3.89 16.47-2.4 3.94-6.79 5.83-10.51 8.23.01 5.52.02 11.03.08 16.55 12.61 3.68 25.4 7.15 37.21 13.04 3.6-4.81 6.75-9.93 10.44-14.67 5.16-6.26 15.44-7.21 21.64-1.95 4.32 3.66 9.03 6.94 12.82 11.17 4.43 5.42 4.39 13.86.06 19.33-3.38 4.33-7.06 8.43-10.5 12.72 26.01 26.27 41.03 63.12 40.23 100.13-.35 34.14-13.89 67.87-37.16 92.84-22.78 24.83-54.76 41.03-88.32 44.36-15.36 1.6-30.98.65-46.02-2.85-2.64-.89-5.12.6-7.56 1.4-4.12 1.56-8.53 2.16-12.92 2.25-82.32-.03-164.64 0-246.97-.02-11.05.28-22.12-4.21-29.75-12.22-7.43-7.57-11.56-18.21-11.26-28.82-.01-114-.02-228.01.01-342.02-.26-10.08 3.48-20.17 10.26-27.63 7.44-8.35 18.5-13.39 29.72-13.29 13.98-.06 27.97-.03 41.96-.01 3.12-11.01 6.33-22 9.47-33.01 1.25-4.33 2.19-8.9 4.86-12.63m12.58 10.43c-1.85 5.01-3.04 10.23-4.46 15.38-3.03 9.54-5.51 19.27-8.38 28.87-.65 2.07-1.97 3.83-2.93 5.75-7.88 2.72-16.42-.07-24.37 1.89-6.63 2.97-4.31 11.26-4.73 16.99.01 2.11.01 4.22.01 6.32 66.67-.02 133.33-.01 200 0 0-2.12 0-4.25.01-6.37-.07-3.6.14-7.2-.17-10.79-.29-3.11-2.8-5.91-5.86-6.53-7.61-1.06-15.47.81-22.95-1.36-1.33-2.38-2.92-4.65-3.53-7.34-2.46-9.13-5.31-18.14-7.66-27.29l-.19-.11c-1.62-5.34-2.72-10.87-4.8-16.05-1.53-3.39-5.49-4.38-8.89-4.16-30.99.02-61.97.02-92.95 0-3.36-.21-6.97 1.49-8.15 4.8M46.84 89.84c-8.81 3.5-14.9 12.64-14.82 22.11-.03 114.68 0 229.36-.02 344.05-.32 12.8 11.17 24.3 23.98 23.99 78.35.02 156.7-.02 235.05.01-21.33-11.26-39.74-28.04-52.78-48.35-14.33-22.08-22.13-48.32-22.25-74.65-.45-33.01 11.59-65.9 32.91-91.06-3.71-4.54-7.66-8.89-11.24-13.54-4.34-5.58-4.26-14.05.21-19.53 3.67-3.99 8.13-7.17 12.23-10.71 5.86-5.13 15.49-4.82 20.96.74 4.07 4.34 7.48 9.25 11.35 13.76 14.04-8.51 29.47-14.82 45.59-18.06-.09-5.46.01-10.92-.01-16.38-10.66-4.63-18.75-16.57-16.2-28.38 1.7-8.87 8.4-15.86 16.15-20.03.07-13.93.07-27.87 0-41.8.22-10.02-6.71-19.62-16.21-22.71-5.45-1.97-11.32-1.13-16.98-1.3 1.71 5.85 1.2 11.99 1.26 18-.12 5.04.16 10.08-.14 15.12-.35 4.26-4.66 7.33-8.81 6.88-71.37.03-142.73 0-214.1.01-4.17.42-8.48-2.63-8.86-6.92-.37-4.35-.02-8.71-.11-13.07.15-6.68-.67-13.51 1.24-20.02-6.15.11-12.59-.68-18.4 1.84m280.72 88c1.26 2.11 2.38 4.71 4.92 5.52 2.76.84 5.7.6 8.55.66 11.35-.15 22.72.16 34.06-.13 3.67.27 5.69-3.19 6.74-6.18-.98-4-2.91-9.14-7.69-9.56-12.03-.37-24.09.01-36.13-.17-5.45-.44-9.67 4.89-10.45 9.86M344 200c0 5.32-.01 10.64.03 15.97 7.99.08 15.97-.01 23.96.02-.05-5.34.04-10.67.01-16-8 .07-16-.01-24 .01m91.26 37.2c3.32 2.75 6.62 5.53 9.92 8.3 2.81-3.31 5.59-6.66 8.31-10.05-3.35-2.68-6.66-5.42-9.93-8.2-2.8 3.29-5.55 6.62-8.3 9.95m-147.63 15.43c-14.71 9.91-27.83 22.71-36.71 38.14-.7.68-1.27 1.49-1.78 2.32-12.88 21.82-18.83 47.65-16.71 72.91 1.91 24.82 11.66 48.92 27.41 68.18 13.23 16.26 30.62 29.13 50.1 36.92 24.01 9.69 51.09 11.48 76.2 5.16 30.91-7.65 58.45-27.83 75.16-54.92 20.6-32.55 24.39-74.9 10.1-110.65-2.54-5.96-4.94-12.13-8.76-17.42-3.11-6.21-7.46-11.7-11.82-17.06-19.69-23.52-48.34-39.33-78.8-43.16-29.27-3.87-59.86 3.11-84.39 19.58m-37.15-9.85c2.76 3.31 5.52 6.63 8.29 9.94 3.33-2.76 6.65-5.54 9.95-8.35-2.79-3.29-5.57-6.58-8.34-9.88-3.29 2.78-6.6 5.53-9.9 8.29z"/><path d="M166.56 48.22c8.41-6.12 20.42-6.1 28.87-.09 6.69 5.05 10.84 13.38 10.1 21.81-.6 10.3-8.51 19.56-18.51 21.95-8.22 2.12-17.44-.4-23.36-6.51-6.58-6.44-8.88-16.76-5.75-25.4 1.62-4.69 4.82-8.68 8.65-11.76m10.72 12.24c-5.88 2.56-6.32 11.83-.68 14.92 5.33 3.58 13.4-.89 12.98-7.36.25-6.09-6.99-10.44-12.3-7.56zM77.37 176.44c3.82-.86 7.78-.36 11.66-.45 64.32-.02 128.64.03 192.95-.02 3.91.12 8.63-.81 11.65 2.34 3.35 3.12 3.1 9.01-.51 11.83-2.79 2.48-6.76 1.8-10.18 1.88-67.3-.03-134.61.01-201.91-.02-3.87.38-7.89-2.11-8.79-5.97-1.1-3.9 1.26-8.37 5.13-9.59zM77.33 232.44c3.81-.84 7.77-.32 11.64-.47 13.04.08 26.07-.05 39.1.05 4.28-.13 8.05 3.75 7.94 8 .12 4.23-3.65 8.09-7.91 7.94-15.71.1-31.43.04-47.14.04-3.37.26-6.94-1.46-8.26-4.68-2-4.09.3-9.51 4.63-10.88zM157.34 232.44c2.84-.74 5.83-.36 8.73-.47 11.34.1 22.68-.08 34.02.07 3.88-.12 7.41 3.03 7.84 6.86.78 4.59-3.21 9.24-7.88 9.06-13.01.12-26.01.03-39.01.04-3.4.27-7-1.43-8.34-4.68-2-4.09.3-9.51 4.64-10.88zM342.52 254.77c21.61-2.72 44.06 1.77 62.89 12.74 23.29 13.37 40.85 36.38 47.42 62.44 6.22 24.07 3.17 50.43-8.62 72.33-13.47 25.58-38.39 44.83-66.62 51.15-23.65 5.48-49.27 2.06-70.57-9.6-21.45-11.55-38.45-31.1-46.81-53.98-9.01-24.18-8.16-51.85 2.32-75.43 13.84-32.03 45.28-55.64 79.99-59.65m9.52 15.31c-24.37.66-48.05 12.63-63.23 31.67-11.22 13.86-17.92 31.35-18.68 49.18-1.13 20.77 5.85 41.84 19.13 57.85 12.9 15.85 31.69 26.82 51.89 30.05 18.5 3.14 38-.17 54.46-9.19 17.12-9.31 30.9-24.67 38.15-42.77 6.17-15.02 7.77-31.85 4.71-47.77-3.62-19.44-14.4-37.4-29.72-49.87-15.72-13.02-36.31-19.98-56.71-19.15z"/><path d="M344.44 285.6c3.49-1.49 8.12-.51 10.26 2.76 3.01 4.59-.2 11.68-5.57 12.6-5.06.83-9.86-3.99-9.47-8.99.21-2.82 2.22-5.29 4.78-6.37zM77.35 288.43c1.51-.48 3.11-.41 4.67-.44 33.67.01 67.34-.02 101 .01 3.87-.39 7.85 2.09 8.73 5.97 1.45 4.81-2.67 10.21-7.71 9.99-34.35.11-68.7.03-103.05.04-3.41.32-6.92-1.49-8.29-4.69-2.01-4.09.31-9.52 4.65-10.88zM376.5 289.56c4.89-1.63 10.82 2.18 10.9 7.44.19 5.94-7.32 10.49-12.42 7.25-5.38-3.26-4.96-12.97 1.52-14.69zM315.28 297.3c3.34-1.66 7.94-.54 9.78 2.81 2.45 3.87 1.29 9.95-3.1 11.88-4.51 2.06-10.82-.78-11.63-5.82-.75-3.7 1.63-7.38 4.95-8.87zM400.38 309.43c5.57-3.36 12.96 2.4 11.89 8.57-.63 6.04-8.74 8.52-13.23 4.94-4.48-3.33-3.25-10.86 1.34-13.51zM351.25 326.99c.37-5.7 7.74-9.07 12.32-5.67 3.02 1.81 3.81 5.49 3.63 8.77-.15 10.99.1 21.99-.11 32.98.03 4.22-3.87 7.79-8.03 7.64-7.72.06-15.44.07-23.16-.01-3.76.08-7.2-2.85-7.79-6.55-.92-4.31 2.45-9.02 6.89-9.3 5.37-.28 10.76-.1 16.14-.1.11-9.25-.15-18.51.11-27.76zM413.4 338.48c2.85-1.37 6.53-.7 8.63 1.69 3.11 3.33 2.99 9.29-.65 12.2-4.49 3.81-12.45.48-13.19-5.27-.5-3.65 1.94-7.19 5.21-8.62zM77.27 344.44c1.52-.48 3.14-.42 4.72-.45 31.35.03 62.7-.04 94.05.03 4.28-.14 8.08 3.73 7.97 8 .12 4.25-3.68 8.12-7.96 7.94-31.7.12-63.41.01-95.11.05-3.37.26-6.85-1.51-8.22-4.66-2.02-4.07.21-9.52 4.55-10.91zM292.05 354.15c4.78-1.04 10.45 2.68 10.31 7.83.04 6.09-7.91 10.73-12.88 6.74-5.17-3.68-3.89-13.17 2.57-14.57zM302.27 384.36c4.2-2.31 10.69-.39 11.76 4.6 1.72 5.72-4.11 12.51-10.08 10.12-6.35-1.78-8.05-11.84-1.68-14.72zM388.19 396.17c4.88-2.57 12.08 1 12.1 6.76.34 5.87-6.77 10.53-11.99 7.69-5.36-2.75-5.53-11.68-.11-14.45zM77.35 400.42c2.8-.75 5.74-.38 8.61-.43 32.34-.01 64.67.03 97.01-.02 3.9-.36 7.89 2.15 8.79 6.05 1.44 4.77-2.67 10.09-7.64 9.96-34.38.08-68.77-.02-103.16.05-3.65.29-7.4-1.87-8.54-5.42-1.56-4.01.89-8.88 4.93-10.19zM328.31 403.4c6.05-3.21 12.66 3.58 10.73 9.69-1.29 6.51-10.76 7.52-14.31 2.36-3.38-3.97-1.05-10.27 3.58-12.05zM359.45 407.65c5.97-2.99 13.16 3.85 11.08 9.98-1.73 5.72-10.08 7.29-13.98 2.91-3.65-3.86-1.63-10.67 2.9-12.89z"/></g><g fill="#ee795b"><path d="M124.86 36.8c1.18-3.31 4.79-5.01 8.15-4.8 30.98.02 61.96.02 92.95 0 3.4-.22 7.36.77 8.89 4.16 2.08 5.18 3.18 10.71 4.8 16.05-3.85-2.31-8.02-4.5-12.65-4.31-10.52 0-21.05-.14-31.57.23-8.45-6.01-20.46-6.03-28.87.09-10.2-.63-20.41-.13-30.61-.39-5.53-.41-11.05 1.11-15.55 4.35 1.42-5.15 2.61-10.37 4.46-15.38zM84.72 88.69c7.95-1.96 16.49.83 24.37-1.89-2.24 5.53-3.32 11.43-5.18 17.09-7.99.15-16.21-.87-23.92 1.79.42-5.73-1.9-14.02 4.73-16.99zM251.03 86.95c7.48 2.17 15.34.3 22.95 1.36 3.06.62 5.57 3.42 5.86 6.53.31 3.59.1 7.19.17 10.79-7.69-2.71-15.9-1.4-23.85-1.8-1.96-5.56-3.07-11.37-5.13-16.88zM327.56 177.84c.78-4.97 5-10.3 10.45-9.86 12.04.18 24.1-.2 36.13.17 4.78.42 6.71 5.56 7.69 9.56-9-2.93-18.56-1.51-27.84-1.79-8.82.27-17.95-1.22-26.43 1.92zM435.26 237.2c2.75-3.33 5.5-6.66 8.3-9.95 3.27 2.78 6.58 5.52 9.93 8.2-2.72 3.39-5.5 6.74-8.31 10.05-3.3-2.77-6.6-5.55-9.92-8.3zM287.63 252.63c24.53-16.47 55.12-23.45 84.39-19.58 30.46 3.83 59.11 19.64 78.8 43.16 4.36 5.36 8.71 10.85 11.82 17.06-3.33-3.31-6.34-6.91-9.38-10.48-17.69-19.39-41.29-33.29-66.84-39.32-25.41-6.1-52.58-4.27-77.03 4.9-18.34 7.04-35.16 18.06-48.73 32.28-3.06 3.55-6.18 7.05-9.74 10.12 8.88-15.43 22-28.23 36.71-38.14zM250.48 242.78c3.3-2.76 6.61-5.51 9.9-8.29 2.77 3.3 5.55 6.59 8.34 9.88-3.3 2.81-6.62 5.59-9.95 8.35-2.77-3.31-5.53-6.63-8.29-9.94z"/></g><g fill="#e85b37"><path d="M120.4 52.18c4.5-3.24 10.02-4.76 15.55-4.35 10.2.26 20.41-.24 30.61.39-3.83 3.08-7.03 7.07-8.65 11.76-3.13 8.64-.83 18.96 5.75 25.4 5.92 6.11 15.14 8.63 23.36 6.51 10-2.39 17.91-11.65 18.51-21.95.74-8.43-3.41-16.76-10.1-21.81 10.52-.37 21.05-.23 31.57-.23 4.63-.19 8.8 2 12.65 4.31l.19.11c2.35 9.15 5.2 18.16 7.66 27.29.61 2.69 2.2 4.96 3.53 7.34 2.06 5.51 3.17 11.32 5.13 16.88 7.95.4 16.16-.91 23.85 1.8-.01 2.12-.01 4.25-.01 6.37-66.67-.01-133.33-.02-200 0 0-2.1 0-4.21-.01-6.32 7.71-2.66 15.93-1.64 23.92-1.79 1.86-5.66 2.94-11.56 5.18-17.09.96-1.92 2.28-3.68 2.93-5.75 2.87-9.6 5.35-19.33 8.38-28.87zM327.56 177.84c8.48-3.14 17.61-1.65 26.43-1.92 9.28.28 18.84-1.14 27.84 1.79-1.05 2.99-3.07 6.45-6.74 6.18-11.34.29-22.71-.02-34.06.13-2.85-.06-5.79.18-8.55-.66-2.54-.81-3.66-3.41-4.92-5.52zM309.39 248.37c24.45-9.17 51.62-11 77.03-4.9 25.55 6.03 49.15 19.93 66.84 39.32 3.04 3.57 6.05 7.17 9.38 10.48 3.82 5.29 6.22 11.46 8.76 17.42 14.29 35.75 10.5 78.1-10.1 110.65-16.71 27.09-44.25 47.27-75.16 54.92-25.11 6.32-52.19 4.53-76.2-5.16-19.48-7.79-36.87-20.66-50.1-36.92-15.75-19.26-25.5-43.36-27.41-68.18-2.12-25.26 3.83-51.09 16.71-72.91.51-.83 1.08-1.64 1.78-2.32 3.56-3.07 6.68-6.57 9.74-10.12 13.57-14.22 30.39-25.24 48.73-32.28m33.13 6.4c-34.71 4.01-66.15 27.62-79.99 59.65-10.48 23.58-11.33 51.25-2.32 75.43 8.36 22.88 25.36 42.43 46.81 53.98 21.3 11.66 46.92 15.08 70.57 9.6 28.23-6.32 53.15-25.57 66.62-51.15 11.79-21.9 14.84-48.26 8.62-72.33-6.57-26.06-24.13-49.07-47.42-62.44-18.83-10.97-41.28-15.46-62.89-12.74z"/></g><g fill="#fcf6f5"><path d="M46.84 89.84c5.81-2.52 12.25-1.73 18.4-1.84-1.91 6.51-1.09 13.34-1.24 20.02.09 4.36-.26 8.72.11 13.07.38 4.29 4.69 7.34 8.86 6.92 71.37-.01 142.73.02 214.1-.01 4.15.45 8.46-2.62 8.81-6.88.3-5.04.02-10.08.14-15.12-.06-6.01.45-12.15-1.26-18 5.66.17 11.53-.67 16.98 1.3 9.5 3.09 16.43 12.69 16.21 22.71.07 13.93.07 27.87 0 41.8-7.75 4.17-14.45 11.16-16.15 20.03-2.55 11.81 5.54 23.75 16.2 28.38.02 5.46-.08 10.92.01 16.38-16.12 3.24-31.55 9.55-45.59 18.06-3.87-4.51-7.28-9.42-11.35-13.76-5.47-5.56-15.1-5.87-20.96-.74-4.1 3.54-8.56 6.72-12.23 10.71-4.47 5.48-4.55 13.95-.21 19.53 3.58 4.65 7.53 9 11.24 13.54C227.59 291.1 215.55 323.99 216 357c.12 26.33 7.92 52.57 22.25 74.65 13.04 20.31 31.45 37.09 52.78 48.35-78.35-.03-156.7.01-235.05-.01C43.17 480.3 31.68 468.8 32 456c.02-114.69-.01-229.37.02-344.05-.08-9.47 6.01-18.61 14.82-22.11m30.53 86.6c-3.87 1.22-6.23 5.69-5.13 9.59.9 3.86 4.92 6.35 8.79 5.97 67.3.03 134.61-.01 201.91.02 3.42-.08 7.39.6 10.18-1.88 3.61-2.82 3.86-8.71.51-11.83-3.02-3.15-7.74-2.22-11.65-2.34-64.31.05-128.63 0-192.95.02-3.88.09-7.84-.41-11.66.45m-.04 56c-4.33 1.37-6.63 6.79-4.63 10.88 1.32 3.22 4.89 4.94 8.26 4.68 15.71 0 31.43.06 47.14-.04 4.26.15 8.03-3.71 7.91-7.94.11-4.25-3.66-8.13-7.94-8-13.03-.1-26.06.03-39.1-.05-3.87.15-7.83-.37-11.64.47m80.01 0c-4.34 1.37-6.64 6.79-4.64 10.88 1.34 3.25 4.94 4.95 8.34 4.68 13-.01 26 .08 39.01-.04 4.67.18 8.66-4.47 7.88-9.06-.43-3.83-3.96-6.98-7.84-6.86-11.34-.15-22.68.03-34.02-.07-2.9.11-5.89-.27-8.73.47m-79.99 55.99c-4.34 1.36-6.66 6.79-4.65 10.88 1.37 3.2 4.88 5.01 8.29 4.69 34.35-.01 68.7.07 103.05-.04 5.04.22 9.16-5.18 7.71-9.99-.88-3.88-4.86-6.36-8.73-5.97-33.66-.03-67.33 0-101-.01-1.56.03-3.16-.04-4.67.44m-.08 56.01c-4.34 1.39-6.57 6.84-4.55 10.91 1.37 3.15 4.85 4.92 8.22 4.66 31.7-.04 63.41.07 95.11-.05 4.28.18 8.08-3.69 7.96-7.94.11-4.27-3.69-8.14-7.97-8-31.35-.07-62.7 0-94.05-.03-1.58.03-3.2-.03-4.72.45m.08 55.98c-4.04 1.31-6.49 6.18-4.93 10.19 1.14 3.55 4.89 5.71 8.54 5.42 34.39-.07 68.78.03 103.16-.05 4.97.13 9.08-5.19 7.64-9.96-.9-3.9-4.89-6.41-8.79-6.05-32.34.05-64.67.01-97.01.02-2.87.05-5.81-.32-8.61.43z"/><path d="M352.04 270.08c20.4-.83 40.99 6.13 56.71 19.15 15.32 12.47 26.1 30.43 29.72 49.87 3.06 15.92 1.46 32.75-4.71 47.77-7.25 18.1-21.03 33.46-38.15 42.77-16.46 9.02-35.96 12.33-54.46 9.19-20.2-3.23-38.99-14.2-51.89-30.05-13.28-16.01-20.26-37.08-19.13-57.85.76-17.83 7.46-35.32 18.68-49.18 15.18-19.04 38.86-31.01 63.23-31.67m-7.6 15.52c-2.56 1.08-4.57 3.55-4.78 6.37-.39 5 4.41 9.82 9.47 8.99 5.37-.92 8.58-8.01 5.57-12.6-2.14-3.27-6.77-4.25-10.26-2.76m32.06 3.96c-6.48 1.72-6.9 11.43-1.52 14.69 5.1 3.24 12.61-1.31 12.42-7.25-.08-5.26-6.01-9.07-10.9-7.44m-61.22 7.74c-3.32 1.49-5.7 5.17-4.95 8.87.81 5.04 7.12 7.88 11.63 5.82 4.39-1.93 5.55-8.01 3.1-11.88-1.84-3.35-6.44-4.47-9.78-2.81m85.1 12.13c-4.59 2.65-5.82 10.18-1.34 13.51 4.49 3.58 12.6 1.1 13.23-4.94 1.07-6.17-6.32-11.93-11.89-8.57m-49.13 17.56c-.26 9.25 0 18.51-.11 27.76-5.38 0-10.77-.18-16.14.1-4.44.28-7.81 4.99-6.89 9.3.59 3.7 4.03 6.63 7.79 6.55 7.72.08 15.44.07 23.16.01 4.16.15 8.06-3.42 8.03-7.64.21-10.99-.04-21.99.11-32.98.18-3.28-.61-6.96-3.63-8.77-4.58-3.4-11.95-.03-12.32 5.67m62.15 11.49c-3.27 1.43-5.71 4.97-5.21 8.62.74 5.75 8.7 9.08 13.19 5.27 3.64-2.91 3.76-8.87.65-12.2-2.1-2.39-5.78-3.06-8.63-1.69m-121.35 15.67c-6.46 1.4-7.74 10.89-2.57 14.57 4.97 3.99 12.92-.65 12.88-6.74.14-5.15-5.53-8.87-10.31-7.83m10.22 30.21c-6.37 2.88-4.67 12.94 1.68 14.72 5.97 2.39 11.8-4.4 10.08-10.12-1.07-4.99-7.56-6.91-11.76-4.6m85.92 11.81c-5.42 2.77-5.25 11.7.11 14.45 5.22 2.84 12.33-1.82 11.99-7.69-.02-5.76-7.22-9.33-12.1-6.76m-59.88 7.23c-4.63 1.78-6.96 8.08-3.58 12.05 3.55 5.16 13.02 4.15 14.31-2.36 1.93-6.11-4.68-12.9-10.73-9.69m31.14 4.25c-4.53 2.22-6.55 9.03-2.9 12.89 3.9 4.38 12.25 2.81 13.98-2.91 2.08-6.13-5.11-12.97-11.08-9.98z"/></g></svg>
